<svg xmlns="http://www.w3.org/2000/svg" xmlns:xlink="http://www.w3.org/1999/xlink" xmlns:lucid="lucid" width="1033" height="846"><g transform="translate(-120 -319)" lucid:page-tab-id="8E-MyOt3oRxC"><path d="M840 600v35h200v-35" fill="#fff"/><path d="M840 635v35h200v-35" fill="#e6e6e6"/><path d="M840 670v30c0 2.76 2.24 5 5 5h190c2.76 0 5-2.24 5-5v-30" fill="#fff"/><path d="M840 600v-35c0-2.76 2.24-5 5-5h190c2.76 0 5 2.24 5 5v35" fill="#ccc"/><path d="M840 565c0-2.76 2.24-5 5-5h190c2.76 0 5 2.24 5 5v135c0 2.76-2.24 5-5 5H845c-2.76 0-5-2.24-5-5zM840 600h200" stroke="#333" fill="none"/><use xlink:href="#a" transform="matrix(1,0,0,1,850,560) translate(11.2 25.15555555555556)"/><use xlink:href="#b" transform="matrix(1,0,0,1,845,602.5) translate(11.2 20.155555555555555)"/><use xlink:href="#c" transform="matrix(1,0,0,1,845,637.5) translate(11.2 20.155555555555555)"/><use xlink:href="#d" transform="matrix(1,0,0,1,845,672.5) translate(11.2 20.155555555555555)"/><path d="M160 720v32h200v-32" fill="#fff"/><path d="M160 752v32h200v-32" fill="#e6e6e6"/><path d="M160 784v32h200v-32" fill="#fff"/><path d="M160 816v32h200v-32" fill="#e6e6e6"/><path d="M160 848v32h200v-32" fill="#fff"/><path d="M160 880v27c0 2.76 2.24 5 5 5h190c2.76 0 5-2.24 5-5v-27" fill="#e6e6e6"/><path d="M160 720v-35c0-2.76 2.24-5 5-5h190c2.76 0 5 2.24 5 5v35" fill="#ccc"/><path d="M160 685c0-2.76 2.24-5 5-5h190c2.76 0 5 2.24 5 5v222c0 2.76-2.24 5-5 5H165c-2.76 0-5-2.24-5-5zM160 720h200" stroke="#333" fill="none"/><use xlink:href="#e" transform="matrix(1,0,0,1,170,680) translate(0 23.6)"/><use xlink:href="#f" transform="matrix(1,0,0,1,165,722.5) translate(0 17.1)"/><use xlink:href="#g" transform="matrix(1,0,0,1,165,754.5) translate(0 17.1)"/><use xlink:href="#h" transform="matrix(1,0,0,1,165,786.5) translate(0 17.1)"/><use xlink:href="#i" transform="matrix(1,0,0,1,165,818.5) translate(0 17.1)"/><use xlink:href="#j" transform="matrix(1,0,0,1,165,850.5) translate(0 17.1)"/><use xlink:href="#k" transform="matrix(1,0,0,1,165,882.5) translate(0 17.1)"/><path d="M800 1020v35h200v-35" fill="#fff"/><path d="M800 1055v35h200v-35" fill="#e6e6e6"/><path d="M800 1090v30c0 2.76 2.24 5 5 5h190c2.76 0 5-2.24 5-5v-30" fill="#fff"/><path d="M800 1020v-35c0-2.76 2.24-5 5-5h190c2.76 0 5 2.24 5 5v35" fill="#ccc"/><path d="M800 985c0-2.76 2.24-5 5-5h190c2.76 0 5 2.24 5 5v135c0 2.76-2.24 5-5 5H805c-2.76 0-5-2.24-5-5zM800 1020h200" stroke="#333" fill="none"/><use xlink:href="#l" transform="matrix(1,0,0,1,810,980) translate(11.2 25.15555555555556)"/><use xlink:href="#m" transform="matrix(1,0,0,1,805,1022.5) translate(11.2 20.155555555555555)"/><use xlink:href="#c" transform="matrix(1,0,0,1,805,1057.5) translate(11.2 20.155555555555555)"/><use xlink:href="#d" transform="matrix(1,0,0,1,805,1092.5) translate(11.2 20.155555555555555)"/><path d="M501.1 720v35h200v-35" fill="#fff"/><path d="M501.1 755v35h200v-35" fill="#e6e6e6"/><path d="M501.1 790v35h200v-35" fill="#fff"/><path d="M501.1 825v35h200v-35" fill="#e6e6e6"/><path d="M501.1 860v30c0 2.76 2.24 5 5 5h190c2.76 0 5-2.24 5-5v-30" fill="#fff"/><path d="M501.1 720v-35c0-2.76 2.24-5 5-5h190c2.76 0 5 2.24 5 5v35" fill="#ccc"/><path d="M501.1 685c0-2.76 2.24-5 5-5h190c2.76 0 5 2.24 5 5v205c0 2.76-2.24 5-5 5h-190c-2.76 0-5-2.24-5-5zM501.1 720h200" stroke="#333" fill="none"/><use xlink:href="#n" transform="matrix(1,0,0,1,511.09692112544076,680) translate(11.2 25.15555555555556)"/><use xlink:href="#o" transform="matrix(1,0,0,1,506.09692112544076,722.5) translate(11.2 20.155555555555555)"/><use xlink:href="#p" transform="matrix(1,0,0,1,506.09692112544076,757.5) translate(11.2 20.155555555555555)"/><use xlink:href="#q" transform="matrix(1,0,0,1,506.09692112544076,792.5) translate(11.2 20.155555555555555)"/><use xlink:href="#r" transform="matrix(1,0,0,1,506.09692112544076,827.5) translate(11.2 20.155555555555555)"/><use xlink:href="#s" transform="matrix(1,0,0,1,506.09692112544076,862.5) translate(11.2 20.155555555555555)"/><path d="M240 400v32h200v-32" fill="#fff"/><path d="M240 432v32h200v-32" fill="#e6e6e6"/><path d="M240 464v27c0 2.76 2.24 5 5 5h190c2.76 0 5-2.24 5-5v-27" fill="#fff"/><path d="M240 400v-35c0-2.76 2.24-5 5-5h190c2.76 0 5 2.24 5 5v35" fill="#ccc"/><path d="M240 365c0-2.76 2.24-5 5-5h190c2.76 0 5 2.24 5 5v126c0 2.76-2.24 5-5 5H245c-2.76 0-5-2.24-5-5zM240 400h200" stroke="#333" fill="none"/><use xlink:href="#t" transform="matrix(1,0,0,1,250,360) translate(0 23.6)"/><use xlink:href="#u" transform="matrix(1,0,0,1,245,402.5) translate(0 17.1)"/><use xlink:href="#v" transform="matrix(1,0,0,1,245,434.5) translate(0 17.1)"/><use xlink:href="#w" transform="matrix(1,0,0,1,245,466.5) translate(0 17.1)"/><path d="M380.5 735.7h44.05c3.3 0 6 2.7 6 6v95.07c0 3.32 2.68 6 6 6h45.22" stroke="#5e5e5e" stroke-width="2" fill="none"/><path d="M380.5 745.7v-20M360.5 735.7h20" stroke="#5e5e5e" stroke-width="2" fill="#fff"/><path d="M500.15 852.77l-20-10 20-10" stroke="#5e5e5e" stroke-width="2" fill="#fff" fill-opacity="0"/><path d="M500.15 842.77h-20" stroke="#5e5e5e" stroke-width="2" fill="#fff"/><path d="M779.5 1037.42h-22.95c-3.32 0-6-2.68-6-6V883.95c0-3.3-2.7-6-6-6h-24.13" stroke="#5e5e5e" stroke-width="2" fill="none"/><path d="M779.5 1027.42v20M799.5 1037.42h-20" stroke="#5e5e5e" stroke-width="2" fill="#fff"/><path d="M702.04 867.95l20 10-20 10" stroke="#5e5e5e" stroke-width="2" fill="#fff" fill-opacity="0"/><path d="M702.04 877.95h20" stroke="#5e5e5e" stroke-width="2" fill="#fff"/><path d="M459.32 415.94H634c3.3 0 6 2.7 6 6v189.48c0 3.32 2.7 6 6 6h174.68" stroke="#5e5e5e" stroke-width="2" fill="none"/><path d="M440.95 405.94l20 10-20 10" stroke="#5e5e5e" stroke-width="2" fill="#fff" fill-opacity="0"/><path d="M440.95 415.94h20" stroke="#5e5e5e" stroke-width="2" fill="#fff"/><path d="M839.05 627.42l-20-10 20-10" stroke="#5e5e5e" stroke-width="2" fill="#fff" fill-opacity="0"/><path d="M839.05 617.42h-20" stroke="#5e5e5e" stroke-width="2" fill="#fff"/><path d="M459.32 448.1h5.23c3.3 0 6 2.7 6 6v277.15c0 3.3 2.68 6 6 6h5.22" stroke="#5e5e5e" stroke-width="2" fill="none"/><path d="M440.95 438.1l20 10-20 10" stroke="#5e5e5e" stroke-width="2" fill="#fff" fill-opacity="0"/><path d="M440.95 448.1h20" stroke="#5e5e5e" stroke-width="2" fill="#fff"/><path d="M500.15 747.25l-20-10 20-10" stroke="#5e5e5e" stroke-width="2" fill="#fff" fill-opacity="0"/><path d="M500.15 737.25h-20" stroke="#5e5e5e" stroke-width="2" fill="#fff"/><defs><path fill="#333" d="M127-220V0H93v-220H8v-28h204v28h-85" id="x"/><path fill="#333" d="M100-194c63 0 86 42 84 106H49c0 40 14 67 53 68 26 1 43-12 49-29l28 8c-11 28-37 45-77 45C44 4 14-33 15-96c1-61 26-98 85-98zm52 81c6-60-76-77-97-28-3 7-6 17-6 28h103" id="y"/><path fill="#333" d="M135-143c-3-34-86-38-87 0 15 53 115 12 119 90S17 21 10-45l28-5c4 36 97 45 98 0-10-56-113-15-118-90-4-57 82-63 122-42 12 7 21 19 24 35" id="z"/><path fill="#333" d="M59-47c-2 24 18 29 38 22v24C64 9 27 4 27-40v-127H5v-23h24l9-43h21v43h35v23H59v120" id="A"/><g id="a"><use transform="matrix(0.04938271604938272,0,0,0.04938271604938272,0,0)" xlink:href="#x"/><use transform="matrix(0.04938271604938272,0,0,0.04938271604938272,8.839506172839506,0)" xlink:href="#y"/><use transform="matrix(0.04938271604938272,0,0,0.04938271604938272,18.71604938271605,0)" xlink:href="#z"/><use transform="matrix(0.04938271604938272,0,0,0.04938271604938272,27.60493827160494,0)" xlink:href="#A"/></g><path fill="#333" d="M33 0v-248h34V0H33" id="B"/><path fill="#333" d="M30-248c118-7 216 8 213 122C240-48 200 0 122 0H30v-248zM63-27c89 8 146-16 146-99s-60-101-146-95v194" id="C"/><g id="b"><use transform="matrix(0.04938271604938272,0,0,0.04938271604938272,0,0)" xlink:href="#B"/><use transform="matrix(0.04938271604938272,0,0,0.04938271604938272,4.938271604938272,0)" xlink:href="#C"/><path fill="#333" d="M-.9 1.23h19.52v1.3H-.88z"/></g><path fill="#333" d="M115-194c55 1 70 41 70 98S169 2 115 4C84 4 66-9 55-30l1 105H24l-1-265h31l2 30c10-21 28-34 59-34zm-8 174c40 0 45-34 45-75s-6-73-45-74c-42 0-51 32-51 76 0 43 10 73 51 73" id="D"/><path fill="#333" d="M114-163C36-179 61-72 57 0H25l-1-190h30c1 12-1 29 2 39 6-27 23-49 58-41v29" id="E"/><path fill="#333" d="M24-231v-30h32v30H24zM24 0v-190h32V0H24" id="F"/><path fill="#333" d="M100-194c62-1 85 37 85 99 1 63-27 99-86 99S16-35 15-95c0-66 28-99 85-99zM99-20c44 1 53-31 53-75 0-43-8-75-51-75s-53 32-53 75 10 74 51 75" id="G"/><path fill="#333" d="M179-190L93 31C79 59 56 82 12 73V49c39 6 53-20 64-50L1-190h34L92-34l54-156h33" id="H"/><g id="c"><use transform="matrix(0.04938271604938272,0,0,0.04938271604938272,0,0)" xlink:href="#D"/><use transform="matrix(0.04938271604938272,0,0,0.04938271604938272,9.876543209876544,0)" xlink:href="#E"/><use transform="matrix(0.04938271604938272,0,0,0.04938271604938272,15.753086419753087,0)" xlink:href="#F"/><use transform="matrix(0.04938271604938272,0,0,0.04938271604938272,19.654320987654323,0)" xlink:href="#G"/><use transform="matrix(0.04938271604938272,0,0,0.04938271604938272,29.530864197530867,0)" xlink:href="#E"/><use transform="matrix(0.04938271604938272,0,0,0.04938271604938272,35.40740740740741,0)" xlink:href="#F"/><use transform="matrix(0.04938271604938272,0,0,0.04938271604938272,39.308641975308646,0)" xlink:href="#A"/><use transform="matrix(0.04938271604938272,0,0,0.04938271604938272,44.24691358024692,0)" xlink:href="#H"/></g><path fill="#333" d="M210-169c-67 3-38 105-44 169h-31v-121c0-29-5-50-35-48C34-165 62-65 56 0H25l-1-190h30c1 10-1 24 2 32 10-44 99-50 107 0 11-21 27-35 58-36 85-2 47 119 55 194h-31v-121c0-29-5-49-35-48" id="I"/><path fill="#333" d="M141-36C126-15 110 5 73 4 37 3 15-17 15-53c-1-64 63-63 125-63 3-35-9-54-41-54-24 1-41 7-42 31l-33-3c5-37 33-52 76-52 45 0 72 20 72 64v82c-1 20 7 32 28 27v20c-31 9-61-2-59-35zM48-53c0 20 12 33 32 33 41-3 63-29 60-74-43 2-92-5-92 41" id="J"/><g id="d"><use transform="matrix(0.04938271604938272,0,0,0.04938271604938272,0,0)" xlink:href="#A"/><use transform="matrix(0.04938271604938272,0,0,0.04938271604938272,4.938271604938272,0)" xlink:href="#F"/><use transform="matrix(0.04938271604938272,0,0,0.04938271604938272,8.839506172839506,0)" xlink:href="#I"/><use transform="matrix(0.04938271604938272,0,0,0.04938271604938272,23.60493827160494,0)" xlink:href="#y"/><use transform="matrix(0.04938271604938272,0,0,0.04938271604938272,33.48148148148148,0)" xlink:href="#z"/><use transform="matrix(0.04938271604938272,0,0,0.04938271604938272,42.37037037037037,0)" xlink:href="#A"/><use transform="matrix(0.04938271604938272,0,0,0.04938271604938272,47.30864197530864,0)" xlink:href="#J"/><use transform="matrix(0.04938271604938272,0,0,0.04938271604938272,57.185185185185176,0)" xlink:href="#I"/><use transform="matrix(0.04938271604938272,0,0,0.04938271604938272,71.95061728395062,0)" xlink:href="#D"/></g><path d="M240 0l2-218c-23 76-54 145-80 218h-23L58-218 59 0H30v-248h44l77 211c21-75 51-140 76-211h43V0h-30" id="K"/><path d="M141-36C126-15 110 5 73 4 37 3 15-17 15-53c-1-64 63-63 125-63 3-35-9-54-41-54-24 1-41 7-42 31l-33-3c5-37 33-52 76-52 45 0 72 20 72 64v82c-1 20 7 32 28 27v20c-31 9-61-2-59-35zM48-53c0 20 12 33 32 33 41-3 63-29 60-74-43 2-92-5-92 41" id="L"/><path d="M96-169c-40 0-48 33-48 73s9 75 48 75c24 0 41-14 43-38l32 2c-6 37-31 61-74 61-59 0-76-41-82-99-10-93 101-131 147-64 4 7 5 14 7 22l-32 3c-4-21-16-35-41-35" id="M"/><path d="M106-169C34-169 62-67 57 0H25v-261h32l-1 103c12-21 28-36 61-36 89 0 53 116 60 194h-32v-121c2-32-8-49-39-48" id="N"/><path d="M24-231v-30h32v30H24zM24 0v-190h32V0H24" id="O"/><path d="M117-194c89-4 53 116 60 194h-32v-121c0-31-8-49-39-48C34-167 62-67 57 0H25l-1-190h30c1 10-1 24 2 32 11-22 29-35 61-36" id="P"/><path d="M100-194c63 0 86 42 84 106H49c0 40 14 67 53 68 26 1 43-12 49-29l28 8c-11 28-37 45-77 45C44 4 14-33 15-96c1-61 26-98 85-98zm52 81c6-60-76-77-97-28-3 7-6 17-6 28h103" id="Q"/><g id="e"><use transform="matrix(0.05,0,0,0.05,0,0)" xlink:href="#K"/><use transform="matrix(0.05,0,0,0.05,14.950000000000001,0)" xlink:href="#L"/><use transform="matrix(0.05,0,0,0.05,24.950000000000003,0)" xlink:href="#M"/><use transform="matrix(0.05,0,0,0.05,33.95,0)" xlink:href="#N"/><use transform="matrix(0.05,0,0,0.05,43.95,0)" xlink:href="#O"/><use transform="matrix(0.05,0,0,0.05,47.900000000000006,0)" xlink:href="#P"/><use transform="matrix(0.05,0,0,0.05,57.900000000000006,0)" xlink:href="#Q"/></g><path d="M205 0l-28-72H64L36 0H1l101-248h38L239 0h-34zm-38-99l-47-123c-12 45-31 82-46 123h93" id="R"/><path d="M212-179c-10-28-35-45-73-45-59 0-87 40-87 99 0 60 29 101 89 101 43 0 62-24 78-52l27 14C228-24 195 4 139 4 59 4 22-46 18-125c-6-104 99-153 187-111 19 9 31 26 39 46" id="S"/><g id="f"><use transform="matrix(0.05,0,0,0.05,0,0)" xlink:href="#K"/><use transform="matrix(0.05,0,0,0.05,14.950000000000001,0)" xlink:href="#R"/><use transform="matrix(0.05,0,0,0.05,26.950000000000003,0)" xlink:href="#S"/><path d="M-.9 1.25h41.7v1.32H-.9z"/></g><path d="M210-169c-67 3-38 105-44 169h-31v-121c0-29-5-50-35-48C34-165 62-65 56 0H25l-1-190h30c1 10-1 24 2 32 10-44 99-50 107 0 11-21 27-35 58-36 85-2 47 119 55 194h-31v-121c0-29-5-49-35-48" id="T"/><path d="M-5 72V49h209v23H-5" id="U"/><g id="g"><use transform="matrix(0.05,0,0,0.05,0,0)" xlink:href="#T"/><use transform="matrix(0.05,0,0,0.05,14.950000000000001,0)" xlink:href="#L"/><use transform="matrix(0.05,0,0,0.05,24.950000000000003,0)" xlink:href="#M"/><use transform="matrix(0.05,0,0,0.05,33.95,0)" xlink:href="#N"/><use transform="matrix(0.05,0,0,0.05,43.95,0)" xlink:href="#O"/><use transform="matrix(0.05,0,0,0.05,47.900000000000006,0)" xlink:href="#P"/><use transform="matrix(0.05,0,0,0.05,57.900000000000006,0)" xlink:href="#Q"/><use transform="matrix(0.05,0,0,0.05,67.9,0)" xlink:href="#U"/><use transform="matrix(0.05,0,0,0.05,77.9,0)" xlink:href="#P"/><use transform="matrix(0.05,0,0,0.05,87.9,0)" xlink:href="#L"/><use transform="matrix(0.05,0,0,0.05,97.9,0)" xlink:href="#T"/><use transform="matrix(0.05,0,0,0.05,112.85000000000001,0)" xlink:href="#Q"/></g><path d="M100-194c62-1 85 37 85 99 1 63-27 99-86 99S16-35 15-95c0-66 28-99 85-99zM99-20c44 1 53-31 53-75 0-43-8-75-51-75s-53 32-53 75 10 74 51 75" id="V"/><path d="M135-143c-3-34-86-38-87 0 15 53 115 12 119 90S17 21 10-45l28-5c4 36 97 45 98 0-10-56-113-15-118-90-4-57 82-63 122-42 12 7 21 19 24 35" id="W"/><g id="h"><use transform="matrix(0.05,0,0,0.05,0,0)" xlink:href="#V"/><use transform="matrix(0.05,0,0,0.05,10,0)" xlink:href="#W"/></g><path d="M108 0H70L1-190h34L89-25l56-165h34" id="X"/><path d="M114-163C36-179 61-72 57 0H25l-1-190h30c1 12-1 29 2 39 6-27 23-49 58-41v29" id="Y"/><g id="i"><use transform="matrix(0.05,0,0,0.05,0,0)" xlink:href="#V"/><use transform="matrix(0.05,0,0,0.05,10,0)" xlink:href="#W"/><use transform="matrix(0.05,0,0,0.05,19,0)" xlink:href="#U"/><use transform="matrix(0.05,0,0,0.05,29,0)" xlink:href="#X"/><use transform="matrix(0.05,0,0,0.05,38,0)" xlink:href="#Q"/><use transform="matrix(0.05,0,0,0.05,48,0)" xlink:href="#Y"/><use transform="matrix(0.05,0,0,0.05,53.95,0)" xlink:href="#W"/><use transform="matrix(0.05,0,0,0.05,62.95,0)" xlink:href="#O"/><use transform="matrix(0.05,0,0,0.05,66.9,0)" xlink:href="#V"/><use transform="matrix(0.05,0,0,0.05,76.9,0)" xlink:href="#P"/></g><path d="M85-194c31 0 48 13 60 33l-1-100h32l1 261h-30c-2-10 0-23-3-31C134-8 116 4 85 4 32 4 16-35 15-94c0-66 23-100 70-100zm9 24c-40 0-46 34-46 75 0 40 6 74 45 74 42 0 51-32 51-76 0-42-9-74-50-73" id="Z"/><path d="M115-194c55 1 70 41 70 98S169 2 115 4C84 4 66-9 55-30l1 105H24l-1-265h31l2 30c10-21 28-34 59-34zm-8 174c40 0 45-34 45-75s-6-73-45-74c-42 0-51 32-51 76 0 43 10 73 51 73" id="aa"/><g id="j"><use transform="matrix(0.05,0,0,0.05,0,0)" xlink:href="#Z"/><use transform="matrix(0.05,0,0,0.05,10,0)" xlink:href="#N"/><use transform="matrix(0.05,0,0,0.05,20,0)" xlink:href="#M"/><use transform="matrix(0.05,0,0,0.05,29,0)" xlink:href="#aa"/></g><path d="M59-47c-2 24 18 29 38 22v24C64 9 27 4 27-40v-127H5v-23h24l9-43h21v43h35v23H59v120" id="ab"/><g id="k"><use transform="matrix(0.05,0,0,0.05,0,0)" xlink:href="#ab"/><use transform="matrix(0.05,0,0,0.05,5,0)" xlink:href="#O"/><use transform="matrix(0.05,0,0,0.05,8.95,0)" xlink:href="#T"/><use transform="matrix(0.05,0,0,0.05,23.9,0)" xlink:href="#Q"/><use transform="matrix(0.05,0,0,0.05,33.9,0)" xlink:href="#W"/><use transform="matrix(0.05,0,0,0.05,42.9,0)" xlink:href="#ab"/><use transform="matrix(0.05,0,0,0.05,47.9,0)" xlink:href="#L"/><use transform="matrix(0.05,0,0,0.05,57.900000000000006,0)" xlink:href="#T"/><use transform="matrix(0.05,0,0,0.05,72.85,0)" xlink:href="#aa"/></g><path fill="#333" d="M160-131c35 5 61 23 61 61C221 17 115-2 30 0v-248c76 3 177-17 177 60 0 33-19 50-47 57zm-97-11c50-1 110 9 110-42 0-47-63-36-110-37v79zm0 115c55-2 124 14 124-45 0-56-70-42-124-44v89" id="ac"/><path fill="#333" d="M84 4C-5 8 30-112 23-190h32v120c0 31 7 50 39 49 72-2 45-101 50-169h31l1 190h-30c-1-10 1-25-2-33-11 22-28 36-60 37" id="ad"/><path fill="#333" d="M117-194c89-4 53 116 60 194h-32v-121c0-31-8-49-39-48C34-167 62-67 57 0H25l-1-190h30c1 10-1 24 2 32 11-22 29-35 61-36" id="ae"/><path fill="#333" d="M-5 72V49h209v23H-5" id="af"/><path fill="#333" d="M108 0H70L1-190h34L89-25l56-165h34" id="ag"/><path fill="#333" d="M24 0v-261h32V0H24" id="ah"/><g id="l"><use transform="matrix(0.04938271604938272,0,0,0.04938271604938272,0,0)" xlink:href="#ac"/><use transform="matrix(0.04938271604938272,0,0,0.04938271604938272,11.851851851851853,0)" xlink:href="#ad"/><use transform="matrix(0.04938271604938272,0,0,0.04938271604938272,21.7283950617284,0)" xlink:href="#z"/><use transform="matrix(0.04938271604938272,0,0,0.04938271604938272,30.617283950617285,0)" xlink:href="#F"/><use transform="matrix(0.04938271604938272,0,0,0.04938271604938272,34.518518518518526,0)" xlink:href="#ae"/><use transform="matrix(0.04938271604938272,0,0,0.04938271604938272,44.39506172839507,0)" xlink:href="#y"/><use transform="matrix(0.04938271604938272,0,0,0.04938271604938272,54.27160493827161,0)" xlink:href="#z"/><use transform="matrix(0.04938271604938272,0,0,0.04938271604938272,63.16049382716051,0)" xlink:href="#z"/><use transform="matrix(0.04938271604938272,0,0,0.04938271604938272,72.0493827160494,0)" xlink:href="#af"/><use transform="matrix(0.04938271604938272,0,0,0.04938271604938272,81.92592592592594,0)" xlink:href="#ag"/><use transform="matrix(0.04938271604938272,0,0,0.04938271604938272,90.81481481481482,0)" xlink:href="#J"/><use transform="matrix(0.04938271604938272,0,0,0.04938271604938272,100.69135802469137,0)" xlink:href="#ah"/><use transform="matrix(0.04938271604938272,0,0,0.04938271604938272,104.5925925925926,0)" xlink:href="#ad"/><use transform="matrix(0.04938271604938272,0,0,0.04938271604938272,114.46913580246914,0)" xlink:href="#y"/></g><g id="m"><use transform="matrix(0.04938271604938272,0,0,0.04938271604938272,0,0)" xlink:href="#ae"/><use transform="matrix(0.04938271604938272,0,0,0.04938271604938272,9.876543209876544,0)" xlink:href="#J"/><use transform="matrix(0.04938271604938272,0,0,0.04938271604938272,19.75308641975309,0)" xlink:href="#I"/><use transform="matrix(0.04938271604938272,0,0,0.04938271604938272,34.51851851851852,0)" xlink:href="#y"/><path fill="#333" d="M-.9 1.23H45.3v1.3H-.9z"/></g><path fill="#333" d="M185-189c-5-48-123-54-124 2 14 75 158 14 163 119 3 78-121 87-175 55-17-10-28-26-33-46l33-7c5 56 141 63 141-1 0-78-155-14-162-118-5-82 145-84 179-34 5 7 8 16 11 25" id="ai"/><path fill="#333" d="M96-169c-40 0-48 33-48 73s9 75 48 75c24 0 41-14 43-38l32 2c-6 37-31 61-74 61-59 0-76-41-82-99-10-93 101-131 147-64 4 7 5 14 7 22l-32 3c-4-21-16-35-41-35" id="aj"/><g id="n"><use transform="matrix(0.04938271604938272,0,0,0.04938271604938272,0,0)" xlink:href="#ai"/><use transform="matrix(0.04938271604938272,0,0,0.04938271604938272,11.851851851851853,0)" xlink:href="#y"/><use transform="matrix(0.04938271604938272,0,0,0.04938271604938272,21.7283950617284,0)" xlink:href="#E"/><use transform="matrix(0.04938271604938272,0,0,0.04938271604938272,27.604938271604947,0)" xlink:href="#ag"/><use transform="matrix(0.04938271604938272,0,0,0.04938271604938272,36.49382716049384,0)" xlink:href="#F"/><use transform="matrix(0.04938271604938272,0,0,0.04938271604938272,40.39506172839507,0)" xlink:href="#aj"/><use transform="matrix(0.04938271604938272,0,0,0.04938271604938272,49.28395061728396,0)" xlink:href="#y"/><use transform="matrix(0.04938271604938272,0,0,0.04938271604938272,59.16049382716051,0)" xlink:href="#z"/></g><g id="o"><use transform="matrix(0.04938271604938272,0,0,0.04938271604938272,0,0)" xlink:href="#B"/><use transform="matrix(0.04938271604938272,0,0,0.04938271604938272,4.938271604938272,0)" xlink:href="#C"/></g><g id="p"><use transform="matrix(0.04938271604938272,0,0,0.04938271604938272,0,0)" xlink:href="#z"/><use transform="matrix(0.04938271604938272,0,0,0.04938271604938272,8.88888888888889,0)" xlink:href="#y"/><use transform="matrix(0.04938271604938272,0,0,0.04938271604938272,18.765432098765434,0)" xlink:href="#E"/><use transform="matrix(0.04938271604938272,0,0,0.04938271604938272,24.641975308641978,0)" xlink:href="#ag"/><use transform="matrix(0.04938271604938272,0,0,0.04938271604938272,33.53086419753087,0)" xlink:href="#F"/><use transform="matrix(0.04938271604938272,0,0,0.04938271604938272,37.4320987654321,0)" xlink:href="#aj"/><use transform="matrix(0.04938271604938272,0,0,0.04938271604938272,46.32098765432099,0)" xlink:href="#y"/></g><g id="q"><use transform="matrix(0.04938271604938272,0,0,0.04938271604938272,0,0)" xlink:href="#D"/><use transform="matrix(0.04938271604938272,0,0,0.04938271604938272,9.876543209876544,0)" xlink:href="#G"/><use transform="matrix(0.04938271604938272,0,0,0.04938271604938272,19.75308641975309,0)" xlink:href="#E"/><use transform="matrix(0.04938271604938272,0,0,0.04938271604938272,25.629629629629633,0)" xlink:href="#A"/></g><path fill="#333" d="M85-194c31 0 48 13 60 33l-1-100h32l1 261h-30c-2-10 0-23-3-31C134-8 116 4 85 4 32 4 16-35 15-94c0-66 23-100 70-100zm9 24c-40 0-46 34-46 75 0 40 6 74 45 74 42 0 51-32 51-76 0-42-9-74-50-73" id="ak"/><g id="r"><use transform="matrix(0.04938271604938272,0,0,0.04938271604938272,0,0)" xlink:href="#I"/><use transform="matrix(0.04938271604938272,0,0,0.04938271604938272,14.765432098765434,0)" xlink:href="#J"/><use transform="matrix(0.04938271604938272,0,0,0.04938271604938272,24.641975308641978,0)" xlink:href="#aj"/><use transform="matrix(0.04938271604938272,0,0,0.04938271604938272,33.53086419753087,0)" xlink:href="#af"/><use transform="matrix(0.04938271604938272,0,0,0.04938271604938272,43.40740740740741,0)" xlink:href="#F"/><use transform="matrix(0.04938271604938272,0,0,0.04938271604938272,47.308641975308646,0)" xlink:href="#ak"/></g><path fill="#333" d="M115-194c53 0 69 39 70 98 0 66-23 100-70 100C84 3 66-7 56-30L54 0H23l1-261h32v101c10-23 28-34 59-34zm-8 174c40 0 45-34 45-75 0-40-5-75-45-74-42 0-51 32-51 76 0 43 10 73 51 73" id="al"/><g id="s"><use transform="matrix(0.04938271604938272,0,0,0.04938271604938272,0,0)" xlink:href="#al"/><use transform="matrix(0.04938271604938272,0,0,0.04938271604938272,9.876543209876544,0)" xlink:href="#ad"/><use transform="matrix(0.04938271604938272,0,0,0.04938271604938272,19.75308641975309,0)" xlink:href="#z"/><use transform="matrix(0.04938271604938272,0,0,0.04938271604938272,28.641975308641978,0)" xlink:href="#F"/><use transform="matrix(0.04938271604938272,0,0,0.04938271604938272,32.543209876543216,0)" xlink:href="#ae"/><use transform="matrix(0.04938271604938272,0,0,0.04938271604938272,42.41975308641976,0)" xlink:href="#y"/><use transform="matrix(0.04938271604938272,0,0,0.04938271604938272,52.2962962962963,0)" xlink:href="#z"/><use transform="matrix(0.04938271604938272,0,0,0.04938271604938272,61.18518518518519,0)" xlink:href="#z"/><use transform="matrix(0.04938271604938272,0,0,0.04938271604938272,70.07407407407408,0)" xlink:href="#af"/><use transform="matrix(0.04938271604938272,0,0,0.04938271604938272,79.95061728395062,0)" xlink:href="#ag"/><use transform="matrix(0.04938271604938272,0,0,0.04938271604938272,88.8395061728395,0)" xlink:href="#J"/><use transform="matrix(0.04938271604938272,0,0,0.04938271604938272,98.71604938271605,0)" xlink:href="#ah"/><use transform="matrix(0.04938271604938272,0,0,0.04938271604938272,102.61728395061729,0)" xlink:href="#ad"/><use transform="matrix(0.04938271604938272,0,0,0.04938271604938272,112.49382716049384,0)" xlink:href="#y"/></g><path d="M127-220V0H93v-220H8v-28h204v28h-85" id="am"/><g id="t"><use transform="matrix(0.05,0,0,0.05,0,0)" xlink:href="#am"/><use transform="matrix(0.05,0,0,0.05,8.950000000000001,0)" xlink:href="#Q"/><use transform="matrix(0.05,0,0,0.05,18.950000000000003,0)" xlink:href="#W"/><use transform="matrix(0.05,0,0,0.05,27.950000000000003,0)" xlink:href="#ab"/><use transform="matrix(0.05,0,0,0.05,32.95,0)" xlink:href="#U"/><use transform="matrix(0.05,0,0,0.05,42.95,0)" xlink:href="#W"/><use transform="matrix(0.05,0,0,0.05,51.95,0)" xlink:href="#Q"/><use transform="matrix(0.05,0,0,0.05,61.95,0)" xlink:href="#Y"/><use transform="matrix(0.05,0,0,0.05,67.9,0)" xlink:href="#X"/><use transform="matrix(0.05,0,0,0.05,76.9,0)" xlink:href="#O"/><use transform="matrix(0.05,0,0,0.05,80.85000000000001,0)" xlink:href="#M"/><use transform="matrix(0.05,0,0,0.05,89.85000000000001,0)" xlink:href="#Q"/><use transform="matrix(0.05,0,0,0.05,99.85000000000001,0)" xlink:href="#W"/></g><g id="u"><use transform="matrix(0.05,0,0,0.05,0,0)" xlink:href="#ab"/><use transform="matrix(0.05,0,0,0.05,5,0)" xlink:href="#Q"/><use transform="matrix(0.05,0,0,0.05,15,0)" xlink:href="#W"/><use transform="matrix(0.05,0,0,0.05,24,0)" xlink:href="#ab"/><use transform="matrix(0.05,0,0,0.05,29,0)" xlink:href="#U"/><use transform="matrix(0.05,0,0,0.05,39,0)" xlink:href="#O"/><use transform="matrix(0.05,0,0,0.05,42.95,0)" xlink:href="#Z"/></g><g id="v"><use transform="matrix(0.05,0,0,0.05,0,0)" xlink:href="#W"/><use transform="matrix(0.05,0,0,0.05,9,0)" xlink:href="#Q"/><use transform="matrix(0.05,0,0,0.05,19,0)" xlink:href="#Y"/><use transform="matrix(0.05,0,0,0.05,24.95,0)" xlink:href="#X"/><use transform="matrix(0.05,0,0,0.05,33.95,0)" xlink:href="#O"/><use transform="matrix(0.05,0,0,0.05,37.900000000000006,0)" xlink:href="#M"/><use transform="matrix(0.05,0,0,0.05,46.900000000000006,0)" xlink:href="#Q"/><use transform="matrix(0.05,0,0,0.05,56.900000000000006,0)" xlink:href="#U"/><use transform="matrix(0.05,0,0,0.05,66.9,0)" xlink:href="#O"/><use transform="matrix(0.05,0,0,0.05,70.85000000000001,0)" xlink:href="#Z"/></g><path d="M141 0L90-78 38 0H4l68-98-65-92h35l48 74 47-74h35l-64 92 68 98h-35" id="an"/><g id="w"><use transform="matrix(0.05,0,0,0.05,0,0)" xlink:href="#Q"/><use transform="matrix(0.05,0,0,0.05,10,0)" xlink:href="#an"/><use transform="matrix(0.05,0,0,0.05,19,0)" xlink:href="#ab"/><use transform="matrix(0.05,0,0,0.05,24,0)" xlink:href="#Y"/><use transform="matrix(0.05,0,0,0.05,29.950000000000003,0)" xlink:href="#L"/></g></defs></g></svg>